<mxfile host="app.diagrams.net" modified="2024-01-11T21:09:01.796Z" agent="Mozilla/5.0 (iPad; CPU OS 17_1 like Mac OS X) AppleWebKit/605.1.15 (KHTML, like Gecko) CriOS/120.0.6099.119 Mobile/15E148 Safari/604.1" etag="cgZz__pdGcZe4pRE_FLb" version="22.1.18" type="github" pages="2">
  <diagram name="Page-1" id="OFE_T3hxCLCRsePA5dHW">
    <mxGraphModel dx="1100" dy="989" grid="0" gridSize="10" guides="1" tooltips="1" connect="1" arrows="1" fold="1" page="0" pageScale="1" pageWidth="850" pageHeight="1100" math="0" shadow="0">
      <root>
        <mxCell id="0" />
        <mxCell id="1" parent="0" />
        <mxCell id="y_VNNOMS79fwAZpH8Hlj-1" style="edgeStyle=none;curved=1;rounded=0;orthogonalLoop=1;jettySize=auto;html=1;entryX=0;entryY=0.5;entryDx=0;entryDy=0;fontSize=12;startSize=8;endSize=8;" edge="1" parent="1" source="PD7PgSNxz3M09lDL2uKu-1" target="GA2TwrgShvv9qHemDPgR-1">
          <mxGeometry relative="1" as="geometry" />
        </mxCell>
        <mxCell id="y_VNNOMS79fwAZpH8Hlj-4" style="edgeStyle=none;curved=1;rounded=0;orthogonalLoop=1;jettySize=auto;html=1;entryX=0.5;entryY=0;entryDx=0;entryDy=0;fontSize=12;startSize=8;endSize=8;" edge="1" parent="1" source="PD7PgSNxz3M09lDL2uKu-1" target="y_VNNOMS79fwAZpH8Hlj-2">
          <mxGeometry relative="1" as="geometry" />
        </mxCell>
        <mxCell id="y_VNNOMS79fwAZpH8Hlj-6" style="edgeStyle=none;curved=1;rounded=0;orthogonalLoop=1;jettySize=auto;html=1;fontSize=12;startSize=8;endSize=8;entryX=0.5;entryY=1;entryDx=0;entryDy=0;" edge="1" parent="1" source="PD7PgSNxz3M09lDL2uKu-1" target="y_VNNOMS79fwAZpH8Hlj-5">
          <mxGeometry relative="1" as="geometry">
            <mxPoint x="176" y="72.125" as="targetPoint" />
          </mxGeometry>
        </mxCell>
        <mxCell id="PD7PgSNxz3M09lDL2uKu-1" value="Design Frame" style="rounded=0;whiteSpace=wrap;html=1;fontSize=16;fillColor=#d5e8d4;strokeColor=#82b366;" parent="1" vertex="1">
          <mxGeometry x="76" y="149" width="200" height="100" as="geometry" />
        </mxCell>
        <mxCell id="y_VNNOMS79fwAZpH8Hlj-10" style="edgeStyle=none;curved=1;rounded=0;orthogonalLoop=1;jettySize=auto;html=1;entryX=0.5;entryY=0;entryDx=0;entryDy=0;fontSize=12;startSize=8;endSize=8;" edge="1" parent="1" source="GA2TwrgShvv9qHemDPgR-1" target="y_VNNOMS79fwAZpH8Hlj-9">
          <mxGeometry relative="1" as="geometry" />
        </mxCell>
        <mxCell id="y_VNNOMS79fwAZpH8Hlj-13" style="edgeStyle=none;curved=1;rounded=0;orthogonalLoop=1;jettySize=auto;html=1;fontSize=12;startSize=8;endSize=8;exitX=0.5;exitY=0;exitDx=0;exitDy=0;entryX=0.5;entryY=1;entryDx=0;entryDy=0;" edge="1" parent="1" source="GA2TwrgShvv9qHemDPgR-1" target="y_VNNOMS79fwAZpH8Hlj-11">
          <mxGeometry relative="1" as="geometry">
            <mxPoint x="496.38" y="87" as="targetPoint" />
            <mxPoint x="484.99616161616166" y="135.9999999999999" as="sourcePoint" />
          </mxGeometry>
        </mxCell>
        <mxCell id="y_VNNOMS79fwAZpH8Hlj-14" style="edgeStyle=none;curved=1;rounded=0;orthogonalLoop=1;jettySize=auto;html=1;entryX=0;entryY=0.5;entryDx=0;entryDy=0;fontSize=12;startSize=8;endSize=8;" edge="1" parent="1" source="GA2TwrgShvv9qHemDPgR-1" target="y_VNNOMS79fwAZpH8Hlj-12">
          <mxGeometry relative="1" as="geometry" />
        </mxCell>
        <mxCell id="GA2TwrgShvv9qHemDPgR-1" value="Design pickup mechanism" style="rounded=0;whiteSpace=wrap;html=1;fontSize=16;fillColor=#d5e8d4;strokeColor=#82b366;" vertex="1" parent="1">
          <mxGeometry x="326" y="149" width="200" height="100" as="geometry" />
        </mxCell>
        <mxCell id="y_VNNOMS79fwAZpH8Hlj-2" value="CAD" style="rounded=0;whiteSpace=wrap;html=1;fontSize=16;fillColor=#d5e8d4;strokeColor=#82b366;" vertex="1" parent="1">
          <mxGeometry x="76" y="324" width="200" height="100" as="geometry" />
        </mxCell>
        <mxCell id="y_VNNOMS79fwAZpH8Hlj-5" value="Prototype" style="rounded=0;whiteSpace=wrap;html=1;fontSize=16;" vertex="1" parent="1">
          <mxGeometry x="76" y="-31" width="200" height="100" as="geometry" />
        </mxCell>
        <mxCell id="y_VNNOMS79fwAZpH8Hlj-9" value="CAD" style="rounded=0;whiteSpace=wrap;html=1;fontSize=16;" vertex="1" parent="1">
          <mxGeometry x="326" y="324" width="200" height="100" as="geometry" />
        </mxCell>
        <mxCell id="y_VNNOMS79fwAZpH8Hlj-11" value="Prototype" style="rounded=0;whiteSpace=wrap;html=1;fontSize=16;" vertex="1" parent="1">
          <mxGeometry x="326" y="-31" width="200" height="100" as="geometry" />
        </mxCell>
        <mxCell id="y_VNNOMS79fwAZpH8Hlj-16" style="edgeStyle=none;curved=1;rounded=0;orthogonalLoop=1;jettySize=auto;html=1;entryX=0.5;entryY=0;entryDx=0;entryDy=0;fontSize=12;startSize=8;endSize=8;" edge="1" parent="1" source="y_VNNOMS79fwAZpH8Hlj-12" target="y_VNNOMS79fwAZpH8Hlj-15">
          <mxGeometry relative="1" as="geometry" />
        </mxCell>
        <mxCell id="y_VNNOMS79fwAZpH8Hlj-18" style="edgeStyle=none;curved=1;rounded=0;orthogonalLoop=1;jettySize=auto;html=1;entryX=0.5;entryY=1;entryDx=0;entryDy=0;fontSize=12;startSize=8;endSize=8;" edge="1" parent="1" source="y_VNNOMS79fwAZpH8Hlj-12" target="y_VNNOMS79fwAZpH8Hlj-17">
          <mxGeometry relative="1" as="geometry" />
        </mxCell>
        <mxCell id="y_VNNOMS79fwAZpH8Hlj-12" value="Design Shooting Mechanism&amp;nbsp;" style="rounded=0;whiteSpace=wrap;html=1;fontSize=16;" vertex="1" parent="1">
          <mxGeometry x="576" y="149" width="200" height="100" as="geometry" />
        </mxCell>
        <mxCell id="y_VNNOMS79fwAZpH8Hlj-15" value="CAD" style="rounded=0;whiteSpace=wrap;html=1;fontSize=16;" vertex="1" parent="1">
          <mxGeometry x="576" y="324" width="200" height="100" as="geometry" />
        </mxCell>
        <mxCell id="y_VNNOMS79fwAZpH8Hlj-17" value="Prototype" style="rounded=0;whiteSpace=wrap;html=1;fontSize=16;" vertex="1" parent="1">
          <mxGeometry x="576" y="-31" width="200" height="100" as="geometry" />
        </mxCell>
      </root>
    </mxGraphModel>
  </diagram>
  <diagram id="zRBGiRpfeFTTUr2apei1" name="Program">
    <mxGraphModel dx="990" dy="530" grid="0" gridSize="10" guides="1" tooltips="1" connect="1" arrows="1" fold="1" page="0" pageScale="1" pageWidth="850" pageHeight="1100" math="0" shadow="0">
      <root>
        <mxCell id="0" />
        <mxCell id="1" parent="0" />
      </root>
    </mxGraphModel>
  </diagram>
</mxfile>
